<?xml version="1.0" encoding="UTF-8" standalone="no"?>
<!-- Created with Inkscape (http://www.inkscape.org/) -->

<svg
   width="512"
   height="512"
   viewBox="0 0 512 512"
   version="1.1"
   id="svg1"
   inkscape:version="1.3.1 (91b66b0783, 2023-11-16)"
   sodipodi:docname="DtgA-Icon.svg"
   xmlns:inkscape="http://www.inkscape.org/namespaces/inkscape"
   xmlns:sodipodi="http://sodipodi.sourceforge.net/DTD/sodipodi-0.dtd"
   xmlns:xlink="http://www.w3.org/1999/xlink"
   xmlns="http://www.w3.org/2000/svg"
   xmlns:svg="http://www.w3.org/2000/svg">
  <sodipodi:namedview
     id="namedview1"
     pagecolor="#505050"
     bordercolor="#eeeeee"
     borderopacity="1"
     inkscape:showpageshadow="0"
     inkscape:pageopacity="0"
     inkscape:pagecheckerboard="0"
     inkscape:deskcolor="#505050"
     inkscape:document-units="px"
     inkscape:zoom="1.4142136"
     inkscape:cx="314.30896"
     inkscape:cy="253.49778"
     inkscape:window-width="1920"
     inkscape:window-height="1017"
     inkscape:window-x="1912"
     inkscape:window-y="-8"
     inkscape:window-maximized="1"
     inkscape:current-layer="layer1" />
  <defs
     id="defs1">
    <linearGradient
       id="linearGradient3"
       inkscape:collect="always">
      <stop
         style="stop-color:#85ffe1;stop-opacity:0.41;"
         offset="0"
         id="stop3" />
      <stop
         style="stop-color:#9adbcb;stop-opacity:0.21960784;"
         offset="0.67397261"
         id="stop5" />
      <stop
         style="stop-color:#b3b3b3;stop-opacity:0;"
         offset="1"
         id="stop4" />
    </linearGradient>
    <rect
       x="75.410255"
       y="181.75806"
       width="216.56279"
       height="268.7699"
       id="rect2" />
    <rect
       x="112.14859"
       y="431.19196"
       width="90.879028"
       height="116.01578"
       id="rect4" />
    <rect
       x="342.24655"
       y="409.92242"
       width="148.88692"
       height="139.21893"
       id="rect5" />
    <radialGradient
       inkscape:collect="always"
       xlink:href="#linearGradient3"
       id="radialGradient4"
       cx="256"
       cy="256"
       fx="256"
       fy="256"
       r="181.01933"
       gradientUnits="userSpaceOnUse" />
  </defs>
  <g
     inkscape:label="Layer 1"
     inkscape:groupmode="layer"
     id="layer1">
    <rect
       style="fill:#000000;fill-opacity:1;stroke-width:7.55906"
       id="Background"
       width="512"
       height="512"
       x="0"
       y="-6.8833828e-15" />
    <path
       style="fill:url(#radialGradient4);fill-opacity:1;stroke-width:7.55906"
       id="GradientBG"
       sodipodi:type="arc"
       sodipodi:cx="256"
       sodipodi:cy="256"
       sodipodi:rx="181.01933"
       sodipodi:ry="181.01933"
       sodipodi:start="0"
       sodipodi:end="6.2831226"
       sodipodi:open="true"
       sodipodi:arc-type="chord"
       inkscape:label="GradientBG" />
    <path
       style="fill:none;fill-opacity:1;stroke-width:0.378321"
       id="OriginalStar"
       sodipodi:type="arc"
       sodipodi:cx="158.25"
       sodipodi:cy="87.355667"
       sodipodi:rx="0.61935002"
       sodipodi:ry="0.61935002"
       sodipodi:start="0"
       sodipodi:end="6.2831226"
       sodipodi:open="true"
       sodipodi:arc-type="chord"
       inkscape:label="OriginalStar" />
    <path
       id="Stars"
       style="fill:#b3b3b3;fill-opacity:1;stroke-width:0.113625"
       d="M -85.162109 -235.37891 A 0.71538979 0.71538979 0 0 0 -85.878906 -234.66406 A 0.71538979 0.71538979 0 0 0 -85.162109 -233.94922 A 0.71538979 0.71538979 0 0 0 -84.447266 -234.66406 A 0.71538979 0.71538979 0 0 0 -85.162109 -235.37891 z M -74.958984 -187.69141 A 0.77885717 0.77885717 0 0 0 -75.736328 -186.91211 A 0.77885717 0.77885717 0 0 0 -74.958984 -186.13281 A 0.77885717 0.77885717 0 0 0 -74.179688 -186.91211 A 0.77885717 0.77885717 0 0 0 -74.958984 -187.69141 z M 32.394531 -181.24414 A 0.76864916 0.76864916 0 0 0 31.626953 -180.47461 A 0.76864916 0.76864916 0 0 0 32.394531 -179.70703 A 0.76864916 0.76864916 0 0 0 33.164062 -180.47461 A 0.76864916 0.76864916 0 0 0 32.394531 -181.24414 z M 73.119141 -172.10938 A 0.44564104 0.44564104 0 0 0 72.673828 -171.66406 A 0.44564104 0.44564104 0 0 0 73.119141 -171.21875 A 0.44564104 0.44564104 0 0 0 73.564453 -171.66406 A 0.44564104 0.44564104 0 0 0 73.119141 -172.10938 z M 119.06445 -166.29883 A 0.47629571 0.47629571 0 0 0 118.58789 -165.82227 A 0.47629571 0.47629571 0 0 0 119.06445 -165.3457 A 0.47629571 0.47629571 0 0 0 119.54102 -165.82227 A 0.47629571 0.47629571 0 0 0 119.06445 -166.29883 z M -40.728516 -155.44922 A 0.5659405 0.5659405 0 0 0 -41.294922 -154.88281 A 0.5659405 0.5659405 0 0 0 -40.728516 -154.31836 A 0.5659405 0.5659405 0 0 0 -40.164062 -154.88281 A 0.5659405 0.5659405 0 0 0 -40.728516 -155.44922 z M 18.949219 -142.22656 A 0.28683063 0.28683063 0 0 0 18.662109 -141.93945 A 0.28683063 0.28683063 0 0 0 18.949219 -141.65234 A 0.28683063 0.28683063 0 0 0 19.236328 -141.93945 A 0.28683063 0.28683063 0 0 0 18.949219 -142.22656 z M 33.449219 -139.46484 A 0.93283224 0.93283224 0 0 0 32.517578 -138.5332 A 0.93283224 0.93283224 0 0 0 33.449219 -137.59961 A 0.93283224 0.93283224 0 0 0 34.382812 -138.5332 A 0.93283224 0.93283224 0 0 0 33.449219 -139.46484 z M 43.046875 -128.6875 A 0.45761025 0.45761025 0 0 0 42.589844 -128.23047 A 0.45761025 0.45761025 0 0 0 43.046875 -127.77148 A 0.45761025 0.45761025 0 0 0 43.503906 -128.23047 A 0.45761025 0.45761025 0 0 0 43.046875 -128.6875 z M 601.69922 -120.75391 A 0.49253327 0.49253327 0 0 0 601.20703 -120.26172 A 0.49253327 0.49253327 0 0 0 601.69922 -119.76953 A 0.49253327 0.49253327 0 0 0 602.19141 -120.26172 A 0.49253327 0.49253327 0 0 0 601.69922 -120.75391 z M -170.39648 -110.83203 A 0.2356319 0.2356319 0 0 0 -170.63281 -110.5957 A 0.2356319 0.2356319 0 0 0 -170.39648 -110.36133 A 0.2356319 0.2356319 0 0 0 -170.16016 -110.5957 A 0.2356319 0.2356319 0 0 0 -170.39648 -110.83203 z M 409.19141 -91.095703 A 0.82437134 0.82437134 0 0 0 408.36719 -90.269531 A 0.82437134 0.82437134 0 0 0 409.19141 -89.445312 A 0.82437134 0.82437134 0 0 0 410.01562 -90.269531 L 410.01562 -90.271484 A 0.82437134 0.82437134 0 0 0 409.19141 -91.095703 z M -42.037109 -90.134766 A 0.6758945 0.6758945 0 0 0 -42.712891 -89.458984 A 0.6758945 0.6758945 0 0 0 -42.037109 -88.783203 A 0.6758945 0.6758945 0 0 0 -41.361328 -89.458984 A 0.6758945 0.6758945 0 0 0 -42.037109 -90.134766 z M 115.49805 -89.822266 A 0.65095788 0.65095788 0 0 0 114.8457 -89.169922 A 0.65095788 0.65095788 0 0 0 115.49805 -88.519531 A 0.65095788 0.65095788 0 0 0 116.14844 -89.169922 A 0.65095788 0.65095788 0 0 0 115.49805 -89.822266 z M 176.9707 -87.878906 A 0.3866086 0.3866086 0 0 0 176.58398 -87.492188 A 0.3866086 0.3866086 0 0 0 176.9707 -87.105469 A 0.3866086 0.3866086 0 0 0 177.35742 -87.492188 A 0.3866086 0.3866086 0 0 0 176.9707 -87.878906 z M 92.728516 -85.201172 A 0.759251 0.759251 0 0 0 91.970703 -84.443359 A 0.759251 0.759251 0 0 0 92.728516 -83.683594 A 0.759251 0.759251 0 0 0 93.488281 -84.443359 A 0.759251 0.759251 0 0 0 92.728516 -85.201172 z M -65.351562 -83.101562 A 0.7436949 0.7436949 0 0 0 -66.095703 -82.359375 A 0.7436949 0.7436949 0 0 0 -65.351562 -81.615234 A 0.7436949 0.7436949 0 0 0 -64.607422 -82.359375 A 0.7436949 0.7436949 0 0 0 -65.351562 -83.101562 z M -88.289062 -82.318359 A 0.68153828 0.68153828 0 0 0 -88.970703 -81.636719 A 0.68153828 0.68153828 0 0 0 -88.289062 -80.955078 A 0.68153828 0.68153828 0 0 0 -87.607422 -81.636719 A 0.68153828 0.68153828 0 0 0 -88.289062 -82.318359 z M 111.58008 -82.039062 A 0.80614811 0.80614811 0 0 0 110.77344 -81.234375 A 0.80614811 0.80614811 0 0 0 111.58008 -80.427734 A 0.80614811 0.80614811 0 0 0 112.38672 -81.234375 A 0.80614811 0.80614811 0 0 0 111.58008 -82.039062 z M 99.25 -80.728516 A 0.15700452 0.15700452 0 0 0 99.115234 -80.572266 A 0.15700452 0.15700452 0 0 0 99.271484 -80.416016 A 0.15700452 0.15700452 0 0 0 99.429688 -80.572266 A 0.15700452 0.15700452 0 0 0 99.271484 -80.728516 A 0.15700452 0.15700452 0 0 0 99.25 -80.728516 z M 117.97461 -69.84375 A 1.0459909 1.0459909 0 0 0 116.92773 -68.798828 A 1.0459909 1.0459909 0 0 0 117.97461 -67.751953 A 1.0459909 1.0459909 0 0 0 119.01953 -68.798828 A 1.0459909 1.0459909 0 0 0 117.97461 -69.84375 z M -34.822266 -66.212891 A 0.40582946 0.40582946 0 0 0 -35.226562 -65.806641 A 0.40582946 0.40582946 0 0 0 -34.822266 -65.402344 A 0.40582946 0.40582946 0 0 0 -34.416016 -65.806641 A 0.40582946 0.40582946 0 0 0 -34.822266 -66.212891 z M -170.07227 -65.025391 A 0.59719157 0.59719157 0 0 0 -170.66992 -64.427734 A 0.59719157 0.59719157 0 0 0 -170.07227 -63.830078 A 0.59719157 0.59719157 0 0 0 -169.47656 -64.427734 A 0.59719157 0.59719157 0 0 0 -170.07227 -65.025391 z M 235.69336 -63.357422 A 0.86753845 0.86753845 0 0 0 234.82617 -62.488281 A 0.86753845 0.86753845 0 0 0 235.69336 -61.621094 A 0.86753845 0.86753845 0 0 0 236.5625 -62.488281 A 0.86753845 0.86753845 0 0 0 235.69336 -63.357422 z M 77.152344 -60.9375 A 0.15588212 0.15588212 0 0 0 77.019531 -60.783203 A 0.15588212 0.15588212 0 0 0 77.175781 -60.626953 A 0.15588212 0.15588212 0 0 0 77.332031 -60.783203 A 0.15588212 0.15588212 0 0 0 77.175781 -60.9375 A 0.15588212 0.15588212 0 0 0 77.152344 -60.9375 z M 163.4043 -55.181641 A 0.76447117 0.76447117 0 0 0 162.64062 -54.416016 A 0.76447117 0.76447117 0 0 0 163.4043 -53.652344 A 0.76447117 0.76447117 0 0 0 164.16992 -54.416016 A 0.76447117 0.76447117 0 0 0 163.4043 -55.181641 z M 363.875 -51.519531 A 0.7930423 0.7930423 0 0 0 363.08203 -50.724609 A 0.7930423 0.7930423 0 0 0 363.875 -49.931641 A 0.7930423 0.7930423 0 0 0 364.66797 -50.724609 A 0.7930423 0.7930423 0 0 0 363.875 -51.519531 z M 117.71875 -46.917969 A 0.32673702 0.32673702 0 0 0 117.39258 -46.589844 A 0.32673702 0.32673702 0 0 0 117.71875 -46.263672 A 0.32673702 0.32673702 0 0 0 118.04492 -46.589844 A 0.32673702 0.32673702 0 0 0 117.71875 -46.917969 z M -167.26367 -26.146484 A 0.68724465 0.68724465 0 0 0 -167.95117 -25.458984 A 0.68724465 0.68724465 0 0 0 -167.26367 -24.771484 A 0.68724465 0.68724465 0 0 0 -166.57812 -25.458984 A 0.68724465 0.68724465 0 0 0 -167.26367 -26.146484 z M 346.17383 -12.513672 A 0.53922224 0.53922224 0 0 0 345.63477 -11.974609 A 0.53922224 0.53922224 0 0 0 346.17383 -11.435547 A 0.53922224 0.53922224 0 0 0 346.71484 -11.974609 A 0.53922224 0.53922224 0 0 0 346.17383 -12.513672 z M 355.52734 -3.4257812 A 0.87443233 0.87443233 0 0 0 354.6543 -2.5507812 A 0.87443233 0.87443233 0 0 0 355.52734 -1.6777344 A 0.87443233 0.87443233 0 0 0 356.40234 -2.5507812 A 0.87443233 0.87443233 0 0 0 355.52734 -3.4257812 z M 167.45898 1.1132812 A 0.37912112 0.37912112 0 0 0 167.08008 1.4921875 A 0.37912112 0.37912112 0 0 0 167.45898 1.8710938 A 0.37912112 0.37912112 0 0 0 167.83789 1.4921875 A 0.37912112 0.37912112 0 0 0 167.45898 1.1132812 z M 626.86133 4.7128906 A 0.67442918 0.67442918 0 0 0 626.18555 5.3867188 A 0.67442918 0.67442918 0 0 0 626.86133 6.0625 A 0.67442918 0.67442918 0 0 0 627.53516 5.3867188 A 0.67442918 0.67442918 0 0 0 626.86133 4.7128906 z M 25.4375 6.0078125 A 0.445425 0.445425 0 0 0 24.992188 6.4550781 A 0.445425 0.445425 0 0 0 25.4375 6.9003906 A 0.445425 0.445425 0 0 0 25.882812 6.4550781 L 25.882812 6.453125 A 0.445425 0.445425 0 0 0 25.4375 6.0078125 z M 173.98047 13.519531 A 1.004295 1.004295 0 0 0 172.97656 14.525391 A 1.004295 1.004295 0 0 0 173.98047 15.529297 A 1.004295 1.004295 0 0 0 174.98438 14.525391 A 1.004295 1.004295 0 0 0 173.98047 13.519531 z M 51.523438 14.966797 A 0.49259415 0.49259415 0 0 0 51.03125 15.458984 A 0.49259415 0.49259415 0 0 0 51.523438 15.951172 A 0.49259415 0.49259415 0 0 0 52.017578 15.458984 A 0.49259415 0.49259415 0 0 0 51.523438 14.966797 z M -28.611328 22.935547 A 0.98929071 0.98929071 0 0 0 -29.599609 23.925781 A 0.98929071 0.98929071 0 0 0 -28.611328 24.916016 A 0.98929071 0.98929071 0 0 0 -27.621094 23.925781 A 0.98929071 0.98929071 0 0 0 -28.611328 22.935547 z M -46.330078 27.439453 A 0.32194084 0.32194084 0 0 0 -46.652344 27.761719 A 0.32194084 0.32194084 0 0 0 -46.330078 28.083984 A 0.32194084 0.32194084 0 0 0 -46.007812 27.761719 A 0.32194084 0.32194084 0 0 0 -46.330078 27.439453 z M 45.880859 29.347656 A 0.13436219 0.13436219 0 0 0 45.765625 29.482422 A 0.13436219 0.13436219 0 0 0 45.900391 29.615234 A 0.13436219 0.13436219 0 0 0 46.035156 29.482422 A 0.13436219 0.13436219 0 0 0 45.900391 29.347656 A 0.13436219 0.13436219 0 0 0 45.880859 29.347656 z M 175.97656 31.330078 A 0.24488348 0.24488348 0 0 0 175.73242 31.574219 A 0.24488348 0.24488348 0 0 0 175.97656 31.820312 A 0.24488348 0.24488348 0 0 0 176.22266 31.574219 A 0.24488348 0.24488348 0 0 0 175.97656 31.330078 z M 334.95508 31.503906 A 0.83665234 0.83665234 0 0 0 334.11914 32.341797 A 0.83665234 0.83665234 0 0 0 334.95508 33.177734 A 0.83665234 0.83665234 0 0 0 335.79102 32.341797 A 0.83665234 0.83665234 0 0 0 334.95508 31.503906 z M 317.83008 31.625 A 0.78037983 0.78037983 0 0 0 317.04883 32.40625 A 0.78037983 0.78037983 0 0 0 317.83008 33.1875 A 0.78037983 0.78037983 0 0 0 318.60938 32.40625 A 0.78037983 0.78037983 0 0 0 317.83008 31.625 z M 450.94922 32.685547 A 0.85829383 0.85829383 0 0 0 450.0918 33.542969 A 0.85829383 0.85829383 0 0 0 450.94922 34.402344 A 0.85829383 0.85829383 0 0 0 451.80859 33.542969 A 0.85829383 0.85829383 0 0 0 450.94922 32.685547 z M 361.15039 33.001953 A 0.80788559 0.80788559 0 0 0 360.34375 33.810547 A 0.80788559 0.80788559 0 0 0 361.15039 34.617188 A 0.80788559 0.80788559 0 0 0 361.95898 33.810547 A 0.80788559 0.80788559 0 0 0 361.15039 33.001953 z M -165.06445 35.310547 A 0.60162604 0.60162604 0 0 0 -165.66602 35.912109 A 0.60162604 0.60162604 0 0 0 -165.06445 36.513672 A 0.60162604 0.60162604 0 0 0 -164.46289 35.912109 A 0.60162604 0.60162604 0 0 0 -165.06445 35.310547 z M 575.92773 39.158203 A 0.21622674 0.21622674 0 0 0 575.71289 39.375 A 0.21622674 0.21622674 0 0 0 575.92773 39.589844 A 0.21622674 0.21622674 0 0 0 576.14453 39.375 A 0.21622674 0.21622674 0 0 0 575.92773 39.158203 z M 558.63281 39.710938 A 0.58203328 0.58203328 0 0 0 558.05078 40.292969 A 0.58203328 0.58203328 0 0 0 558.63477 40.875 A 0.58203328 0.58203328 0 0 0 559.2168 40.292969 A 0.58203328 0.58203328 0 0 0 558.63281 39.710938 z M 474.39648 46.634766 A 0.63321495 0.63321495 0 0 0 473.76367 47.267578 A 0.63321495 0.63321495 0 0 0 474.39648 47.902344 A 0.63321495 0.63321495 0 0 0 475.0293 47.267578 A 0.63321495 0.63321495 0 0 0 474.39648 46.634766 z M 537.12305 51.294922 A 0.61921835 0.61921835 0 0 0 536.50391 51.914062 A 0.61921835 0.61921835 0 0 0 537.12305 52.533203 A 0.61921835 0.61921835 0 0 0 537.74219 51.914062 A 0.61921835 0.61921835 0 0 0 537.12305 51.294922 z M 164.16992 70.138672 A 0.37106153 0.37106153 0 0 0 163.80078 70.509766 A 0.37106153 0.37106153 0 0 0 164.16992 70.880859 A 0.37106153 0.37106153 0 0 0 164.54102 70.509766 A 0.37106153 0.37106153 0 0 0 164.16992 70.138672 z M -66.185547 71.261719 A 0.74110293 0.74110293 0 0 0 -66.925781 72.003906 A 0.74110293 0.74110293 0 0 0 -66.185547 72.744141 A 0.74110293 0.74110293 0 0 0 -65.443359 72.003906 A 0.74110293 0.74110293 0 0 0 -66.185547 71.261719 z M 317.16016 83.904297 A 0.36897865 0.36897865 0 0 0 316.79102 84.273438 A 0.36897865 0.36897865 0 0 0 317.16016 84.642578 A 0.36897865 0.36897865 0 0 0 317.5293 84.273438 A 0.36897865 0.36897865 0 0 0 317.16016 83.904297 z M 367.38281 87.533203 A 0.35900474 0.35900474 0 0 0 367.02344 87.890625 A 0.35900474 0.35900474 0 0 0 367.38281 88.25 A 0.35900474 0.35900474 0 0 0 367.74023 87.890625 A 0.35900474 0.35900474 0 0 0 367.38281 87.533203 z M 452.9668 88.400391 A 0.20287502 0.20287502 0 0 0 452.76367 88.603516 A 0.20287502 0.20287502 0 0 0 452.9668 88.806641 A 0.20287502 0.20287502 0 0 0 453.16797 88.603516 A 0.20287502 0.20287502 0 0 0 452.9668 88.400391 z M 122.95117 91.660156 A 1.0482209 1.0482209 0 0 0 121.9043 92.707031 A 1.0482209 1.0482209 0 0 0 122.95117 93.755859 A 1.0482209 1.0482209 0 0 0 124 92.707031 A 1.0482209 1.0482209 0 0 0 122.95117 91.660156 z M 71.972656 96.710938 A 0.15319933 0.15319933 0 0 0 71.820312 96.865234 A 0.15319933 0.15319933 0 0 0 71.972656 97.017578 A 0.15319933 0.15319933 0 0 0 72.126953 96.865234 A 0.15319933 0.15319933 0 0 0 71.972656 96.710938 z M -73.357422 98.744141 A 0.19499561 0.19499561 0 0 0 -73.552734 98.939453 A 0.19499561 0.19499561 0 0 0 -73.357422 99.134766 A 0.19499561 0.19499561 0 0 0 -73.162109 98.939453 A 0.19499561 0.19499561 0 0 0 -73.357422 98.744141 z M 330.09766 98.845703 A 1.0059905 1.0059905 0 0 0 329.0918 99.851562 A 1.0059905 1.0059905 0 0 0 330.09766 100.85742 A 1.0059905 1.0059905 0 0 0 331.10352 99.851562 A 1.0059905 1.0059905 0 0 0 330.09766 98.845703 z M -20.103516 100.70703 A 0.57796174 0.57796174 0 0 0 -20.681641 101.28516 A 0.57796174 0.57796174 0 0 0 -20.103516 101.86328 A 0.57796174 0.57796174 0 0 0 -19.525391 101.28516 A 0.57796174 0.57796174 0 0 0 -20.103516 100.70703 z M 61.46875 101.16797 A 0.67286175 0.67286175 0 0 0 60.794922 101.8418 A 0.67286175 0.67286175 0 0 0 61.46875 102.51367 A 0.67286175 0.67286175 0 0 0 62.140625 101.83984 A 0.67286175 0.67286175 0 0 0 61.46875 101.16797 z M 197.83203 113.42383 A 0.18601556 0.18601556 0 0 0 197.64648 113.60938 A 0.18601556 0.18601556 0 0 0 197.83203 113.79492 A 0.18601556 0.18601556 0 0 0 198.01953 113.60938 A 0.18601556 0.18601556 0 0 0 197.83203 113.42383 z M 208.94336 113.58008 A 0.24959633 0.24959633 0 0 0 208.69336 113.83008 A 0.24959633 0.24959633 0 0 0 208.94336 114.08008 A 0.24959633 0.24959633 0 0 0 209.19336 113.83008 A 0.24959633 0.24959633 0 0 0 208.94336 113.58008 z M 440.00977 115.89844 A 0.47674203 0.47674203 0 0 0 439.5332 116.375 A 0.47674203 0.47674203 0 0 0 440.00977 116.85156 A 0.47674203 0.47674203 0 0 0 440.48633 116.375 A 0.47674203 0.47674203 0 0 0 440.00977 115.89844 z M 159.5957 127.29688 A 0.19872583 0.19872583 0 0 0 159.39648 127.49609 A 0.19872583 0.19872583 0 0 0 159.5957 127.69336 A 0.19872583 0.19872583 0 0 0 159.79492 127.49609 A 0.19872583 0.19872583 0 0 0 159.5957 127.29688 z M 68.708984 128.19141 A 0.34695145 0.34695145 0 0 0 68.363281 128.53906 A 0.34695145 0.34695145 0 0 0 68.708984 128.88672 A 0.34695145 0.34695145 0 0 0 69.056641 128.53906 A 0.34695145 0.34695145 0 0 0 68.708984 128.19141 z M 420.97461 135.76172 A 1.09313 1.09313 0 0 0 419.88086 136.85547 A 1.09313 1.09313 0 0 0 420.97461 137.94922 A 1.09313 1.09313 0 0 0 422.06836 136.85547 A 1.09313 1.09313 0 0 0 420.97461 135.76172 z M 285.70898 137.96094 A 0.87406766 0.87406766 0 0 0 284.83398 138.83398 A 0.87406766 0.87406766 0 0 0 285.70898 139.70898 A 0.87406766 0.87406766 0 0 0 286.58203 138.83398 A 0.87406766 0.87406766 0 0 0 285.70898 137.96094 z M 6.8515625 138.57031 A 0.72031891 0.72031891 0 0 0 6.1308594 139.29102 A 0.72031891 0.72031891 0 0 0 6.8515625 140.00977 A 0.72031891 0.72031891 0 0 0 7.5722656 139.29102 A 0.72031891 0.72031891 0 0 0 6.8515625 138.57031 z M 81.097656 140.19727 A 0.95055902 0.95055902 0 0 0 80.146484 141.14648 A 0.95055902 0.95055902 0 0 0 81.097656 142.09766 A 0.95055902 0.95055902 0 0 0 82.046875 141.14648 A 0.95055902 0.95055902 0 0 0 81.097656 140.19727 z M 38.998047 142.97852 A 0.18827592 0.18827592 0 0 0 38.808594 143.16797 A 0.18827592 0.18827592 0 0 0 38.998047 143.35547 A 0.18827592 0.18827592 0 0 0 39.185547 143.16797 A 0.18827592 0.18827592 0 0 0 38.998047 142.97852 z M 268.24023 145.70703 A 0.62847525 0.62847525 0 0 0 267.61133 146.33398 A 0.62847525 0.62847525 0 0 0 268.24023 146.96289 A 0.62847525 0.62847525 0 0 0 268.86719 146.33398 A 0.62847525 0.62847525 0 0 0 268.24023 145.70703 z M 211.19141 152.71484 A 0.9486205 0.9486205 0 0 0 210.24219 153.66211 A 0.9486205 0.9486205 0 0 0 211.19141 154.61133 A 0.9486205 0.9486205 0 0 0 212.14062 153.66211 A 0.9486205 0.9486205 0 0 0 211.19141 152.71484 z M -45.59375 159.06836 A 0.98330957 0.98330957 0 0 0 -46.576172 160.05078 A 0.98330957 0.98330957 0 0 0 -45.59375 161.03516 A 0.98330957 0.98330957 0 0 0 -44.611328 160.05078 A 0.98330957 0.98330957 0 0 0 -45.59375 159.06836 z M 276.52734 160.53906 A 0.54901457 0.54901457 0 0 0 275.97852 161.08789 A 0.54901457 0.54901457 0 0 0 276.52734 161.63672 A 0.54901457 0.54901457 0 0 0 277.07617 161.08789 A 0.54901457 0.54901457 0 0 0 276.52734 160.53906 z M 48.748047 164.0332 A 0.56603354 0.56603354 0 0 0 48.181641 164.59961 A 0.56603354 0.56603354 0 0 0 48.748047 165.16406 A 0.56603354 0.56603354 0 0 0 49.314453 164.59961 L 49.314453 164.59766 A 0.56603354 0.56603354 0 0 0 48.748047 164.0332 z M 20.373047 167.20508 A 0.8263846 0.8263846 0 0 0 19.544922 168.03125 A 0.8263846 0.8263846 0 0 0 20.373047 168.85742 A 0.8263846 0.8263846 0 0 0 21.199219 168.03125 A 0.8263846 0.8263846 0 0 0 20.373047 167.20508 z M 332.02344 168.73242 A 0.81332624 0.81332624 0 0 0 331.21094 169.54688 A 0.81332624 0.81332624 0 0 0 332.02344 170.35938 A 0.81332624 0.81332624 0 0 0 332.83789 169.54688 A 0.81332624 0.81332624 0 0 0 332.02344 168.73242 z M 150.48047 174.78125 A 0.28646019 0.28646019 0 0 0 150.19336 175.06641 A 0.28646019 0.28646019 0 0 0 150.48047 175.35352 A 0.28646019 0.28646019 0 0 0 150.76562 175.06641 A 0.28646019 0.28646019 0 0 0 150.48047 174.78125 z M 194.48047 176.8457 A 1.0756246 1.0756246 0 0 0 193.4043 177.91992 A 1.0756246 1.0756246 0 0 0 194.48047 178.99609 A 1.0756246 1.0756246 0 0 0 195.55664 177.91992 A 1.0756246 1.0756246 0 0 0 194.48047 176.8457 z M 86.292969 184.29883 A 0.58674634 0.58674634 0 0 0 85.707031 184.88477 A 0.58674634 0.58674634 0 0 0 86.292969 185.47266 A 0.58674634 0.58674634 0 0 0 86.880859 184.88477 A 0.58674634 0.58674634 0 0 0 86.292969 184.29883 z M 540.54492 185.86133 A 0.84822041 0.84822041 0 0 0 539.69531 186.70898 A 0.84822041 0.84822041 0 0 0 540.54492 187.55664 A 0.84822041 0.84822041 0 0 0 541.39258 186.70898 A 0.84822041 0.84822041 0 0 0 540.54492 185.86133 z M 585.89258 186.09961 A 0.47504413 0.47504413 0 0 0 585.41602 186.57422 A 0.47504413 0.47504413 0 0 0 585.89258 187.04883 A 0.47504413 0.47504413 0 0 0 586.36719 186.57422 A 0.47504413 0.47504413 0 0 0 585.89258 186.09961 z M 337.24414 187.75586 A 0.3728404 0.3728404 0 0 0 336.87109 188.12891 A 0.3728404 0.3728404 0 0 0 337.24414 188.50195 A 0.3728404 0.3728404 0 0 0 337.61719 188.12891 A 0.3728404 0.3728404 0 0 0 337.24414 187.75586 z M 231.05664 187.87891 A 0.72417217 0.72417217 0 0 0 230.33203 188.60352 A 0.72417217 0.72417217 0 0 0 231.05664 189.32812 A 0.72417217 0.72417217 0 0 0 231.78125 188.60352 A 0.72417217 0.72417217 0 0 0 231.05664 187.87891 z M 133.06445 190.55469 A 0.30189148 0.30189148 0 0 0 132.76172 190.85547 A 0.30189148 0.30189148 0 0 0 133.06445 191.1582 A 0.30189148 0.30189148 0 0 0 133.36523 190.85547 A 0.30189148 0.30189148 0 0 0 133.06445 190.55469 z M 398.9375 191.88867 A 0.18829814 0.18829814 0 0 0 398.74805 192.07617 A 0.18829814 0.18829814 0 0 0 398.9375 192.26562 A 0.18829814 0.18829814 0 0 0 399.125 192.07617 A 0.18829814 0.18829814 0 0 0 398.9375 191.88867 z M 232.2207 192.2207 A 0.51930028 0.51930028 0 0 0 231.70117 192.74023 A 0.51930028 0.51930028 0 0 0 232.2207 193.25781 A 0.51930028 0.51930028 0 0 0 232.74023 192.74023 A 0.51930028 0.51930028 0 0 0 232.2207 192.2207 z M 68.527344 195.76367 A 0.38950619 0.38950619 0 0 0 68.136719 196.1543 A 0.38950619 0.38950619 0 0 0 68.527344 196.54297 A 0.38950619 0.38950619 0 0 0 68.916016 196.1543 A 0.38950619 0.38950619 0 0 0 68.527344 195.76367 z M 48.064453 196.59961 A 0.46612182 0.46612182 0 0 0 47.597656 197.06641 A 0.46612182 0.46612182 0 0 0 48.064453 197.5332 A 0.46612182 0.46612182 0 0 0 48.529297 197.06641 A 0.46612182 0.46612182 0 0 0 48.064453 196.59961 z M 129.41602 196.74805 A 0.5334059 0.5334059 0 0 0 128.88281 197.28125 A 0.5334059 0.5334059 0 0 0 129.41602 197.81445 A 0.5334059 0.5334059 0 0 0 129.94922 197.28125 A 0.5334059 0.5334059 0 0 0 129.41602 196.74805 z M -15.078125 201.32812 A 0.37530887 0.37530887 0 0 0 -15.453125 201.70312 A 0.37530887 0.37530887 0 0 0 -15.078125 202.08008 A 0.37530887 0.37530887 0 0 0 -14.701172 201.70312 A 0.37530887 0.37530887 0 0 0 -15.078125 201.32812 z M 515.89062 204.99609 A 0.62805772 0.62805772 0 0 0 515.26172 205.625 A 0.62805772 0.62805772 0 0 0 515.89062 206.25391 A 0.62805772 0.62805772 0 0 0 516.51758 205.625 A 0.62805772 0.62805772 0 0 0 515.89062 204.99609 z M 566.42383 205.98633 A 0.78967589 0.78967589 0 0 0 565.63281 206.77734 A 0.78967589 0.78967589 0 0 0 566.42383 207.56641 A 0.78967589 0.78967589 0 0 0 567.21289 206.77734 A 0.78967589 0.78967589 0 0 0 566.42383 205.98633 z M 290.97266 207.41016 A 0.20719522 0.20719522 0 0 0 290.76367 207.61719 A 0.20719522 0.20719522 0 0 0 290.97266 207.82422 A 0.20719522 0.20719522 0 0 0 291.17969 207.61719 A 0.20719522 0.20719522 0 0 0 290.97266 207.41016 z M 375.01367 207.82227 A 0.9915579 0.9915579 0 0 0 374.02148 208.81445 A 0.9915579 0.9915579 0 0 0 375.01367 209.80469 A 0.9915579 0.9915579 0 0 0 376.00586 208.81445 A 0.9915579 0.9915579 0 0 0 375.01367 207.82227 z M 111.14648 213.5293 A 0.71160012 0.71160012 0 0 0 110.43555 214.24023 A 0.71160012 0.71160012 0 0 0 111.14648 214.95312 A 0.71160012 0.71160012 0 0 0 111.85742 214.24023 A 0.71160012 0.71160012 0 0 0 111.14648 213.5293 z M 93.714844 217.11328 A 1.0159034 1.0159034 0 0 0 92.699219 218.12891 A 1.0159034 1.0159034 0 0 0 93.714844 219.14453 A 1.0159034 1.0159034 0 0 0 94.732422 218.12891 A 1.0159034 1.0159034 0 0 0 93.714844 217.11328 z M 357.04883 225.17773 A 0.39934549 0.39934549 0 0 0 356.65039 225.57812 A 0.39934549 0.39934549 0 0 0 357.04883 225.97656 A 0.39934549 0.39934549 0 0 0 357.44922 225.57812 A 0.39934549 0.39934549 0 0 0 357.04883 225.17773 z M 20.951172 232.12109 A 0.89852911 0.89852911 0 0 0 20.052734 233.01953 A 0.89852911 0.89852911 0 0 0 20.951172 233.91797 A 0.89852911 0.89852911 0 0 0 21.849609 233.01953 A 0.89852911 0.89852911 0 0 0 20.951172 232.12109 z M 53.035156 235.30664 A 0.69107264 0.69107264 0 0 0 52.34375 235.99805 A 0.69107264 0.69107264 0 0 0 53.035156 236.68945 A 0.69107264 0.69107264 0 0 0 53.726562 235.99805 A 0.69107264 0.69107264 0 0 0 53.035156 235.30664 z M 156.54492 236.35938 A 0.85873491 0.85873491 0 0 0 155.68555 237.21875 A 0.85873491 0.85873491 0 0 0 156.54492 238.07812 A 0.85873491 0.85873491 0 0 0 157.40234 237.21875 A 0.85873491 0.85873491 0 0 0 156.54492 236.35938 z M 484.72656 241.50977 A 0.25147668 0.25147668 0 0 0 484.47461 241.76172 A 0.25147668 0.25147668 0 0 0 484.72656 242.01367 A 0.25147668 0.25147668 0 0 0 484.97852 241.76172 A 0.25147668 0.25147668 0 0 0 484.72656 241.50977 z M 37.140625 245.40625 A 0.37741143 0.37741143 0 0 0 36.763672 245.7832 A 0.37741143 0.37741143 0 0 0 37.140625 246.16211 A 0.37741143 0.37741143 0 0 0 37.517578 245.7832 A 0.37741143 0.37741143 0 0 0 37.140625 245.40625 z M 295.80273 246.89453 A 0.94991732 0.94991732 0 0 0 294.85352 247.84375 A 0.94991732 0.94991732 0 0 0 295.80273 248.79492 A 0.94991732 0.94991732 0 0 0 296.75195 247.84375 A 0.94991732 0.94991732 0 0 0 295.80273 246.89453 z M 464.38281 253.48633 A 0.93828148 0.93828148 0 0 0 463.44336 254.42578 A 0.93828148 0.93828148 0 0 0 464.38281 255.36328 A 0.93828148 0.93828148 0 0 0 465.32031 254.42578 A 0.93828148 0.93828148 0 0 0 464.38281 253.48633 z M 413.63281 260.22461 A 0.20125641 0.20125641 0 0 0 413.42969 260.42578 A 0.20125641 0.20125641 0 0 0 413.63281 260.62695 A 0.20125641 0.20125641 0 0 0 413.83398 260.42578 A 0.20125641 0.20125641 0 0 0 413.63281 260.22461 z M 274.43555 260.52539 A 0.76594532 0.76594532 0 0 0 273.66992 261.29102 A 0.76594532 0.76594532 0 0 0 274.43555 262.05664 A 0.76594532 0.76594532 0 0 0 275.20117 261.29102 A 0.76594532 0.76594532 0 0 0 274.43555 260.52539 z M 507.7832 265.21875 A 1.0817544 1.0817544 0 0 0 506.70117 266.30078 A 1.0817544 1.0817544 0 0 0 507.7832 267.38086 A 1.0817544 1.0817544 0 0 0 508.86523 266.30078 A 1.0817544 1.0817544 0 0 0 507.7832 265.21875 z M 227.52148 272.87305 A 0.16828729 0.16828729 0 0 0 227.35156 273.04102 A 0.16828729 0.16828729 0 0 0 227.52148 273.20898 A 0.16828729 0.16828729 0 0 0 227.68945 273.04102 A 0.16828729 0.16828729 0 0 0 227.52148 272.87305 z M 130.66797 274.09961 A 0.47588548 0.47588548 0 0 0 130.19141 274.57617 A 0.47588548 0.47588548 0 0 0 130.66797 275.05273 A 0.47588548 0.47588548 0 0 0 131.14258 274.57617 A 0.47588548 0.47588548 0 0 0 130.66797 274.09961 z M 162.70312 274.44727 A 0.44545627 0.44545627 0 0 0 162.25781 274.89258 A 0.44545627 0.44545627 0 0 0 162.70312 275.33789 A 0.44545627 0.44545627 0 0 0 163.14844 274.89258 A 0.44545627 0.44545627 0 0 0 162.70312 274.44727 z M 60.291016 280.92773 A 0.18596882 0.18596882 0 0 0 60.105469 281.11328 A 0.18596882 0.18596882 0 0 0 60.291016 281.29883 A 0.18596882 0.18596882 0 0 0 60.476562 281.11328 A 0.18596882 0.18596882 0 0 0 60.291016 280.92773 z M 477.75586 289.77734 A 0.50049716 0.50049716 0 0 0 477.25391 290.27734 A 0.50049716 0.50049716 0 0 0 477.75586 290.77734 A 0.50049716 0.50049716 0 0 0 478.25586 290.27734 A 0.50049716 0.50049716 0 0 0 477.75586 289.77734 z M -52.072266 292.27734 A 1.1094598 1.1094598 0 0 0 -53.183594 293.38672 A 1.1094598 1.1094598 0 0 0 -52.072266 294.49609 A 1.1094598 1.1094598 0 0 0 -50.962891 293.38672 A 1.1094598 1.1094598 0 0 0 -52.072266 292.27734 z M -42.513672 298.67969 A 0.74804008 0.74804008 0 0 0 -43.261719 299.42773 A 0.74804008 0.74804008 0 0 0 -42.513672 300.17578 A 0.74804008 0.74804008 0 0 0 -41.765625 299.42773 A 0.74804008 0.74804008 0 0 0 -42.513672 298.67969 z M 127.10156 299.00195 A 1.0784367 1.0784367 0 0 0 126.02148 300.08008 A 1.0784367 1.0784367 0 0 0 127.10156 301.1582 A 1.0784367 1.0784367 0 0 0 128.17969 300.08008 A 1.0784367 1.0784367 0 0 0 127.10156 299.00195 z M 374.01758 299.79297 A 0.33212081 0.33212081 0 0 0 373.68555 300.125 A 0.33212081 0.33212081 0 0 0 374.01758 300.45703 A 0.33212081 0.33212081 0 0 0 374.34961 300.125 A 0.33212081 0.33212081 0 0 0 374.01758 299.79297 z M 106.81641 303.20312 A 0.21565668 0.21565668 0 0 0 106.60156 303.41992 A 0.21565668 0.21565668 0 0 0 106.81641 303.63477 A 0.21565668 0.21565668 0 0 0 107.0332 303.41992 A 0.21565668 0.21565668 0 0 0 106.81641 303.20312 z M 414.10547 304.47461 A 0.27482036 0.27482036 0 0 0 413.83203 304.75 A 0.27482036 0.27482036 0 0 0 414.10547 305.02539 A 0.27482036 0.27482036 0 0 0 414.38086 304.75 A 0.27482036 0.27482036 0 0 0 414.10547 304.47461 z M 213.82812 308.32031 A 1.0059428 1.0059428 0 0 0 212.82227 309.32617 A 1.0059428 1.0059428 0 0 0 213.82812 310.33203 A 1.0059428 1.0059428 0 0 0 214.83398 309.32617 A 1.0059428 1.0059428 0 0 0 213.82812 308.32031 z M 111.69336 312.30078 A 0.90202421 0.90202421 0 0 0 110.79102 313.20312 A 0.90202421 0.90202421 0 0 0 111.69336 314.10547 A 0.90202421 0.90202421 0 0 0 112.5957 313.20312 A 0.90202421 0.90202421 0 0 0 111.69336 312.30078 z M 126.84766 333.0293 A 0.28501117 0.28501117 0 0 0 126.5625 333.31445 A 0.28501117 0.28501117 0 0 0 126.84766 333.59961 A 0.28501117 0.28501117 0 0 0 127.13281 333.31445 A 0.28501117 0.28501117 0 0 0 126.84766 333.0293 z M 85.236328 337.84766 A 0.21106192 0.21106192 0 0 0 85.025391 338.05859 A 0.21106192 0.21106192 0 0 0 85.236328 338.26953 A 0.21106192 0.21106192 0 0 0 85.447266 338.05859 A 0.21106192 0.21106192 0 0 0 85.236328 337.84766 z M 586.14258 342.36914 A 1.0179497 1.0179497 0 0 0 585.12305 343.38867 A 1.0179497 1.0179497 0 0 0 586.14258 344.40625 A 1.0179497 1.0179497 0 0 0 587.16016 343.38867 A 1.0179497 1.0179497 0 0 0 586.14258 342.36914 z M 256.72656 347.92383 A 0.87147743 0.87147743 0 0 0 255.85547 348.79492 A 0.87147743 0.87147743 0 0 0 256.72656 349.66797 A 0.87147743 0.87147743 0 0 0 257.59961 348.79492 A 0.87147743 0.87147743 0 0 0 256.72656 347.92383 z M 51.529297 349.16406 A 0.87284756 0.87284756 0 0 0 50.65625 350.03711 A 0.87284756 0.87284756 0 0 0 51.529297 350.91016 A 0.87284756 0.87284756 0 0 0 52.402344 350.03711 A 0.87284756 0.87284756 0 0 0 51.529297 349.16406 z M 579.14453 351.83984 A 0.19840226 0.19840226 0 0 0 578.94531 352.03711 A 0.19840226 0.19840226 0 0 0 579.14453 352.23633 A 0.19840226 0.19840226 0 0 0 579.3418 352.03711 A 0.19840226 0.19840226 0 0 0 579.14453 351.83984 z M 619.51953 355.0293 A 0.395022 0.395022 0 0 0 619.125 355.42578 A 0.395022 0.395022 0 0 0 619.51953 355.82031 A 0.395022 0.395022 0 0 0 619.91602 355.42578 A 0.395022 0.395022 0 0 0 619.51953 355.0293 z M 120.09961 355.3125 A 0.97483999 0.97483999 0 0 0 119.125 356.28711 A 0.97483999 0.97483999 0 0 0 120.09961 357.26172 A 0.97483999 0.97483999 0 0 0 121.07422 356.28711 A 0.97483999 0.97483999 0 0 0 120.09961 355.3125 z M 76.388672 357.60352 A 0.42938778 0.42938778 0 0 0 75.960938 358.0332 A 0.42938778 0.42938778 0 0 0 76.388672 358.46289 A 0.42938778 0.42938778 0 0 0 76.818359 358.0332 A 0.42938778 0.42938778 0 0 0 76.388672 357.60352 z M 34.751953 358.83594 A 0.3735683 0.3735683 0 0 0 34.378906 359.20898 A 0.3735683 0.3735683 0 0 0 34.751953 359.58203 A 0.3735683 0.3735683 0 0 0 35.125 359.20898 A 0.3735683 0.3735683 0 0 0 34.751953 358.83594 z M 4.8144531 370.25 A 0.41575271 0.41575271 0 0 0 4.4003906 370.66406 A 0.41575271 0.41575271 0 0 0 4.8144531 371.08008 A 0.41575271 0.41575271 0 0 0 5.2304688 370.66406 A 0.41575271 0.41575271 0 0 0 4.8144531 370.25 z M 198.61719 374 A 0.53131205 0.53131205 0 0 0 198.08594 374.53125 A 0.53131205 0.53131205 0 0 0 198.61719 375.0625 A 0.53131205 0.53131205 0 0 0 199.14844 374.53125 A 0.53131205 0.53131205 0 0 0 198.61719 374 z M 53.089844 375.15625 A 0.97581565 0.97581565 0 0 0 52.113281 376.13281 A 0.97581565 0.97581565 0 0 0 53.089844 377.10742 A 0.97581565 0.97581565 0 0 0 54.064453 376.13281 L 54.064453 376.13086 A 0.97581565 0.97581565 0 0 0 53.089844 375.15625 z M -130.94336 378.23828 A 1.0167938 1.0167938 0 0 0 -131.95898 379.25586 A 1.0167938 1.0167938 0 0 0 -130.94336 380.27344 A 1.0167938 1.0167938 0 0 0 -129.92578 379.25586 A 1.0167938 1.0167938 0 0 0 -130.94336 378.23828 z M 120.02148 384.30664 A 0.85967714 0.85967714 0 0 0 119.16211 385.16602 A 0.85967714 0.85967714 0 0 0 120.02148 386.02734 A 0.85967714 0.85967714 0 0 0 120.88086 385.16602 A 0.85967714 0.85967714 0 0 0 120.02148 384.30664 z M 744.05469 391.56836 A 1.049847 1.049847 0 0 0 743.00391 392.61719 A 1.049847 1.049847 0 0 0 744.05469 393.66797 A 1.049847 1.049847 0 0 0 745.10352 392.61719 A 1.049847 1.049847 0 0 0 744.05469 391.56836 z M 91.083984 391.66602 A 0.88344187 0.88344187 0 0 0 90.201172 392.54883 A 0.88344187 0.88344187 0 0 0 91.083984 393.43164 A 0.88344187 0.88344187 0 0 0 91.96875 392.54883 A 0.88344187 0.88344187 0 0 0 91.083984 391.66602 z M 35.443359 397.0332 A 0.16267022 0.16267022 0 0 0 35.279297 397.19531 A 0.16267022 0.16267022 0 0 0 35.443359 397.35938 A 0.16267022 0.16267022 0 0 0 35.605469 397.19531 A 0.16267022 0.16267022 0 0 0 35.443359 397.0332 z M 363.62109 400.60156 A 0.23491165 0.23491165 0 0 0 363.38477 400.83789 A 0.23491165 0.23491165 0 0 0 363.62109 401.07227 A 0.23491165 0.23491165 0 0 0 363.85547 400.83789 A 0.23491165 0.23491165 0 0 0 363.62109 400.60156 z M -61.822266 402.52148 A 0.1468956 0.1468956 0 0 0 -61.96875 402.66797 A 0.1468956 0.1468956 0 0 0 -61.822266 402.81641 A 0.1468956 0.1468956 0 0 0 -61.675781 402.66797 A 0.1468956 0.1468956 0 0 0 -61.822266 402.52148 z M 427.58984 406.88477 A 0.59897375 0.59897375 0 0 0 426.99023 407.48438 A 0.59897375 0.59897375 0 0 0 427.58984 408.08203 A 0.59897375 0.59897375 0 0 0 428.18945 407.48438 A 0.59897375 0.59897375 0 0 0 427.58984 406.88477 z M 147.14258 411.12891 A 0.77470994 0.77470994 0 0 0 146.36914 411.9043 A 0.77470994 0.77470994 0 0 0 147.14258 412.67773 A 0.77470994 0.77470994 0 0 0 147.91797 411.9043 L 147.91797 411.90234 A 0.77470994 0.77470994 0 0 0 147.14258 411.12891 z M 198.25586 414.77344 A 0.65023518 0.65023518 0 0 0 197.60547 415.42383 A 0.65023518 0.65023518 0 0 0 198.25586 416.07227 A 0.65023518 0.65023518 0 0 0 198.90625 415.42383 L 198.90625 415.42188 A 0.65023518 0.65023518 0 0 0 198.25586 414.77344 z M -100.81836 416.00586 A 0.64894825 0.64894825 0 0 0 -101.46875 416.65625 A 0.64894825 0.64894825 0 0 0 -100.81836 417.30469 A 0.64894825 0.64894825 0 0 0 -100.16992 416.65625 A 0.64894825 0.64894825 0 0 0 -100.81836 416.00586 z M 503.64062 416.19922 A 0.66161358 0.66161358 0 0 0 502.97852 416.86133 A 0.66161358 0.66161358 0 0 0 503.64062 417.52148 A 0.66161358 0.66161358 0 0 0 504.30273 416.86133 A 0.66161358 0.66161358 0 0 0 503.64062 416.19922 z M 156.23047 416.88086 A 0.99924642 0.99924642 0 0 0 155.23047 417.88086 A 0.99924642 0.99924642 0 0 0 156.23047 418.88086 A 0.99924642 0.99924642 0 0 0 157.22852 417.88086 A 0.99924642 0.99924642 0 0 0 156.23047 416.88086 z M 90.646484 418.02734 A 0.50000226 0.50000226 0 0 0 90.146484 418.52734 A 0.50000226 0.50000226 0 0 0 90.646484 419.02734 A 0.50000226 0.50000226 0 0 0 91.146484 418.52734 A 0.50000226 0.50000226 0 0 0 90.646484 418.02734 z M -1.859375 421.73438 A 0.42016542 0.42016542 0 0 0 -2.2792969 422.1543 A 0.42016542 0.42016542 0 0 0 -1.859375 422.57422 A 0.42016542 0.42016542 0 0 0 -1.4394531 422.1543 A 0.42016542 0.42016542 0 0 0 -1.859375 421.73438 z M -48.474609 428.47461 A 0.57626945 0.57626945 0 0 0 -49.050781 429.05078 A 0.57626945 0.57626945 0 0 0 -48.474609 429.62695 A 0.57626945 0.57626945 0 0 0 -47.898438 429.05078 A 0.57626945 0.57626945 0 0 0 -48.474609 428.47461 z M 163.32227 428.53906 A 0.3386811 0.3386811 0 0 0 162.98242 428.87891 A 0.3386811 0.3386811 0 0 0 163.32227 429.2168 A 0.3386811 0.3386811 0 0 0 163.66016 428.87891 A 0.3386811 0.3386811 0 0 0 163.32227 428.53906 z M 38.080078 435.95508 A 0.68767208 0.68767208 0 0 0 37.392578 436.64258 A 0.68767208 0.68767208 0 0 0 38.080078 437.33008 A 0.68767208 0.68767208 0 0 0 38.767578 436.64258 A 0.68767208 0.68767208 0 0 0 38.080078 435.95508 z M 26.816406 439.21484 A 0.9606272 0.9606272 0 0 0 25.855469 440.17383 A 0.9606272 0.9606272 0 0 0 26.816406 441.13477 A 0.9606272 0.9606272 0 0 0 27.777344 440.17383 A 0.9606272 0.9606272 0 0 0 26.816406 439.21484 z M 48.238281 443.30078 A 0.59036833 0.59036833 0 0 0 47.646484 443.89062 A 0.59036833 0.59036833 0 0 0 48.238281 444.48047 A 0.59036833 0.59036833 0 0 0 48.828125 443.89062 A 0.59036833 0.59036833 0 0 0 48.238281 443.30078 z M -59.873047 445.33594 A 0.54419041 0.54419041 0 0 0 -60.416016 445.88086 A 0.54419041 0.54419041 0 0 0 -59.873047 446.42383 A 0.54419041 0.54419041 0 0 0 -59.328125 445.88086 A 0.54419041 0.54419041 0 0 0 -59.873047 445.33594 z M 99.472656 450.0625 A 0.5939194 0.5939194 0 0 0 98.878906 450.65625 A 0.5939194 0.5939194 0 0 0 99.472656 451.25 A 0.5939194 0.5939194 0 0 0 100.06641 450.65625 A 0.5939194 0.5939194 0 0 0 99.472656 450.0625 z M 339.05859 452.39453 A 0.59716129 0.59716129 0 0 0 338.46094 452.99219 A 0.59716129 0.59716129 0 0 0 339.05859 453.58984 A 0.59716129 0.59716129 0 0 0 339.65625 452.99219 A 0.59716129 0.59716129 0 0 0 339.05859 452.39453 z M 90.988281 465.91211 A 0.48649529 0.48649529 0 0 0 90.501953 466.39844 A 0.48649529 0.48649529 0 0 0 90.988281 466.88477 A 0.48649529 0.48649529 0 0 0 91.474609 466.39844 A 0.48649529 0.48649529 0 0 0 90.988281 465.91211 z M 60.234375 470.42773 A 0.51472765 0.51472765 0 0 0 59.720703 470.94336 A 0.51472765 0.51472765 0 0 0 60.234375 471.45703 A 0.51472765 0.51472765 0 0 0 60.75 470.94336 A 0.51472765 0.51472765 0 0 0 60.234375 470.42773 z M 289.65234 472.61719 A 0.68664521 0.68664521 0 0 0 288.9668 473.30469 A 0.68664521 0.68664521 0 0 0 289.65234 473.99023 A 0.68664521 0.68664521 0 0 0 290.33984 473.30469 A 0.68664521 0.68664521 0 0 0 289.65234 472.61719 z M 317.33008 473.49219 A 0.86514777 0.86514777 0 0 0 316.46484 474.35742 A 0.86514777 0.86514777 0 0 0 317.33008 475.22266 A 0.86514777 0.86514777 0 0 0 318.19531 474.35742 A 0.86514777 0.86514777 0 0 0 317.33008 473.49219 z M 458.26172 473.63086 A 0.73063999 0.73063999 0 0 0 457.53125 474.36133 A 0.73063999 0.73063999 0 0 0 458.26172 475.0918 A 0.73063999 0.73063999 0 0 0 458.99219 474.36133 A 0.73063999 0.73063999 0 0 0 458.26172 473.63086 z M 441.39062 475.86328 A 0.67955375 0.67955375 0 0 0 440.71094 476.54297 A 0.67955375 0.67955375 0 0 0 441.39062 477.2207 A 0.67955375 0.67955375 0 0 0 442.07031 476.54297 A 0.67955375 0.67955375 0 0 0 441.39062 475.86328 z M -47.533203 488.0918 A 0.73359656 0.73359656 0 0 0 -48.265625 488.82617 A 0.73359656 0.73359656 0 0 0 -47.533203 489.55859 A 0.73359656 0.73359656 0 0 0 -46.798828 488.82422 A 0.73359656 0.73359656 0 0 0 -47.533203 488.0918 z M 447.04883 489.16211 A 0.69926345 0.69926345 0 0 0 446.34961 489.86133 A 0.69926345 0.69926345 0 0 0 447.04883 490.56055 A 0.69926345 0.69926345 0 0 0 447.74805 489.86133 A 0.69926345 0.69926345 0 0 0 447.04883 489.16211 z M -133.95898 489.52734 A 0.46457705 0.46457705 0 0 0 -134.42188 489.99219 A 0.46457705 0.46457705 0 0 0 -133.95898 490.45703 A 0.46457705 0.46457705 0 0 0 -133.49414 489.99219 A 0.46457705 0.46457705 0 0 0 -133.95898 489.52734 z M 298.77344 491.86523 A 0.7316981 0.7316981 0 0 0 298.04297 492.59766 A 0.7316981 0.7316981 0 0 0 298.77344 493.32812 A 0.7316981 0.7316981 0 0 0 299.50586 492.59766 A 0.7316981 0.7316981 0 0 0 298.77344 491.86523 z M 533.29492 496.26953 A 0.79824924 0.79824924 0 0 0 532.49609 497.06641 A 0.79824924 0.79824924 0 0 0 533.29492 497.86523 A 0.79824924 0.79824924 0 0 0 534.09375 497.06641 A 0.79824924 0.79824924 0 0 0 533.29492 496.26953 z M 397.37305 509.31836 A 0.36341169 0.36341169 0 0 0 397.00977 509.68164 A 0.36341169 0.36341169 0 0 0 397.37305 510.04492 A 0.36341169 0.36341169 0 0 0 397.73633 509.68164 A 0.36341169 0.36341169 0 0 0 397.37305 509.31836 z M 315.41406 515.04883 A 0.59420133 0.59420133 0 0 0 314.82031 515.64258 A 0.59420133 0.59420133 0 0 0 315.41406 516.23828 A 0.59420133 0.59420133 0 0 0 316.00781 515.64258 A 0.59420133 0.59420133 0 0 0 315.41406 515.04883 z M 70.990234 518.17578 A 0.70088321 0.70088321 0 0 0 70.289062 518.87695 A 0.70088321 0.70088321 0 0 0 70.990234 519.57812 A 0.70088321 0.70088321 0 0 0 71.691406 518.87695 A 0.70088321 0.70088321 0 0 0 70.990234 518.17578 z M -11.304688 519.7207 A 0.36399779 0.36399779 0 0 0 -11.667969 520.08398 A 0.36399779 0.36399779 0 0 0 -11.304688 520.44727 A 0.36399779 0.36399779 0 0 0 -10.939453 520.08398 A 0.36399779 0.36399779 0 0 0 -11.304688 519.7207 z M 697.76562 520.15039 A 0.81019169 0.81019169 0 0 0 696.95703 520.96094 A 0.81019169 0.81019169 0 0 0 697.76562 521.76953 A 0.81019169 0.81019169 0 0 0 698.57617 520.96094 A 0.81019169 0.81019169 0 0 0 697.76562 520.15039 z M 228.23242 534.26758 A 1.0019801 1.0019801 0 0 0 227.23047 535.26953 A 1.0019801 1.0019801 0 0 0 228.23438 536.27148 A 1.0019801 1.0019801 0 0 0 229.23633 535.26953 A 1.0019801 1.0019801 0 0 0 228.23242 534.26758 z M 220.91211 538.35742 A 0.30062631 0.30062631 0 0 0 220.61133 538.6582 A 0.30062631 0.30062631 0 0 0 220.91211 538.95898 A 0.30062631 0.30062631 0 0 0 221.21289 538.6582 A 0.30062631 0.30062631 0 0 0 220.91211 538.35742 z M -65.091797 538.57031 A 1.108662 1.108662 0 0 0 -66.201172 539.67773 A 1.108662 1.108662 0 0 0 -65.091797 540.78711 A 1.108662 1.108662 0 0 0 -63.982422 539.67773 A 1.108662 1.108662 0 0 0 -65.091797 538.57031 z M 526.0957 545.57227 A 0.86317855 0.86317855 0 0 0 525.23242 546.43555 A 0.86317855 0.86317855 0 0 0 526.0957 547.29883 A 0.86317855 0.86317855 0 0 0 526.95898 546.43555 A 0.86317855 0.86317855 0 0 0 526.0957 545.57227 z M 400.64453 550.17383 A 0.71840286 0.71840286 0 0 0 399.92578 550.89258 A 0.71840286 0.71840286 0 0 0 400.64453 551.60938 A 0.71840286 0.71840286 0 0 0 401.36328 550.89258 A 0.71840286 0.71840286 0 0 0 400.64453 550.17383 z M 113.58008 552.0625 A 0.16504088 0.16504088 0 0 0 113.41406 552.22852 A 0.16504088 0.16504088 0 0 0 113.58008 552.39258 A 0.16504088 0.16504088 0 0 0 113.74414 552.22852 A 0.16504088 0.16504088 0 0 0 113.58008 552.0625 z M 518.26172 557.49219 A 0.73890209 0.73890209 0 0 0 517.52344 558.23047 A 0.73890209 0.73890209 0 0 0 518.26172 558.96875 A 0.73890209 0.73890209 0 0 0 519 558.23047 A 0.73890209 0.73890209 0 0 0 518.26172 557.49219 z M 45.408203 574.22461 A 0.1915043 0.1915043 0 0 0 45.216797 574.41602 A 0.1915043 0.1915043 0 0 0 45.408203 574.60938 A 0.1915043 0.1915043 0 0 0 45.601562 574.41602 A 0.1915043 0.1915043 0 0 0 45.408203 574.22461 z M 417.67969 575.0293 A 0.58290666 0.58290666 0 0 0 417.0957 575.61328 A 0.58290666 0.58290666 0 0 0 417.67969 576.19531 A 0.58290666 0.58290666 0 0 0 418.26172 575.61328 A 0.58290666 0.58290666 0 0 0 417.67969 575.0293 z M 599.07812 576.30664 A 0.17431778 0.17431778 0 0 0 598.9043 576.48047 A 0.17431778 0.17431778 0 0 0 599.07812 576.6543 A 0.17431778 0.17431778 0 0 0 599.25195 576.48047 A 0.17431778 0.17431778 0 0 0 599.07812 576.30664 z M 155.25391 580.39258 A 1.0219543 1.0219543 0 0 0 154.23242 581.41406 A 1.0219543 1.0219543 0 0 0 155.25391 582.43555 A 1.0219543 1.0219543 0 0 0 156.27539 581.41406 A 1.0219543 1.0219543 0 0 0 155.25391 580.39258 z M 85.910156 582.31055 A 0.24406654 0.24406654 0 0 0 85.666016 582.55469 A 0.24406654 0.24406654 0 0 0 85.910156 582.79883 A 0.24406654 0.24406654 0 0 0 86.154297 582.55469 A 0.24406654 0.24406654 0 0 0 85.910156 582.31055 z M 436.85938 608.49023 A 0.6712994 0.6712994 0 0 0 436.1875 609.16211 A 0.6712994 0.6712994 0 0 0 436.85938 609.83203 A 0.6712994 0.6712994 0 0 0 437.5293 609.16211 A 0.6712994 0.6712994 0 0 0 436.85938 608.49023 z M 558.50195 646.41602 A 1.0369545 1.0369545 0 0 0 557.46484 647.45312 A 1.0369545 1.0369545 0 0 0 558.50195 648.49023 A 1.0369545 1.0369545 0 0 0 559.53906 647.45312 A 1.0369545 1.0369545 0 0 0 558.50195 646.41602 z M 436.54883 646.59766 A 0.61648721 0.61648721 0 0 0 435.93164 647.21484 A 0.61648721 0.61648721 0 0 0 436.54883 647.83008 A 0.61648721 0.61648721 0 0 0 437.16406 647.21484 L 437.16406 647.21289 A 0.61648721 0.61648721 0 0 0 436.54883 646.59766 z M 482.18555 654.18164 A 0.18233441 0.18233441 0 0 0 482.00195 654.36523 A 0.18233441 0.18233441 0 0 0 482.18555 654.54688 A 0.18233441 0.18233441 0 0 0 482.36719 654.36328 A 0.18233441 0.18233441 0 0 0 482.18555 654.18164 z M 469.58398 658.01758 A 0.60210174 0.60210174 0 0 0 468.98242 658.61914 A 0.60210174 0.60210174 0 0 0 469.58398 659.2207 A 0.60210174 0.60210174 0 0 0 470.18555 658.61914 A 0.60210174 0.60210174 0 0 0 469.58398 658.01758 z M 380.48438 660.39844 A 0.30312094 0.30312094 0 0 0 380.18164 660.70312 A 0.30312094 0.30312094 0 0 0 380.48438 661.00586 A 0.30312094 0.30312094 0 0 0 380.78711 660.70312 L 380.78711 660.70117 A 0.30312094 0.30312094 0 0 0 380.48438 660.39844 z M 358.89648 660.6543 A 0.24206959 0.24206959 0 0 0 358.6543 660.89648 A 0.24206959 0.24206959 0 0 0 358.89648 661.13867 A 0.24206959 0.24206959 0 0 0 359.13867 660.89648 A 0.24206959 0.24206959 0 0 0 358.89648 660.6543 z M 257.38086 670.00586 A 0.57006484 0.57006484 0 0 0 256.81055 670.57617 A 0.57006484 0.57006484 0 0 0 257.38086 671.14453 A 0.57006484 0.57006484 0 0 0 257.95117 670.57617 A 0.57006484 0.57006484 0 0 0 257.38086 670.00586 z M 443.29492 686.85938 A 0.36080551 0.36080551 0 0 0 442.93359 687.21875 A 0.36080551 0.36080551 0 0 0 443.29492 687.58008 A 0.36080551 0.36080551 0 0 0 443.65625 687.21875 A 0.36080551 0.36080551 0 0 0 443.29492 686.85938 z "
       inkscape:spray-origin="#path6"
       inkscape:label="Stars" />
    <text
       xml:space="preserve"
       transform="matrix(3.073668,0,0,3.073668,-114.55869,-396.56034)"
       id="LetterD"
       style="font-size:74.6667px;line-height:0.65;font-family:'The Wild Breath of Zelda';-inkscape-font-specification:'The Wild Breath of Zelda';white-space:pre;shape-inside:url(#rect2);fill:#85ffe1;fill-opacity:1;stroke-width:7.55906"><tspan
         x="75.410156"
         y="226.75624"
         id="tspan4">D</tspan></text>
    <text
       xml:space="preserve"
       style="font-size:229.501px;line-height:0.65;font-family:'The Wild Breath of Zelda';-inkscape-font-specification:'The Wild Breath of Zelda';fill:#85ffe1;fill-opacity:1;stroke-width:23.234"
       x="231.19299"
       y="309.78931"
       id="LetterT"
       inkscape:label="LetterT"><tspan
         sodipodi:role="line"
         id="tspan6"
         x="231.19299"
         y="309.78931"
         style="fill:#85ffe1;fill-opacity:1;stroke-width:23.234">t</tspan></text>
    <text
       xml:space="preserve"
       transform="matrix(3.073668,0,0,3.073668,-155.42427,-1034.7769)"
       id="LetterG"
       style="font-size:74.6667px;line-height:0.65;font-family:'The Wild Breath of Zelda';-inkscape-font-specification:'The Wild Breath of Zelda';white-space:pre;shape-inside:url(#rect4);fill:#85ffe1;fill-opacity:1;stroke-width:7.55906"
       inkscape:label="LetterG"><tspan
         x="112.14844"
         y="476.18984"
         id="tspan5">g</tspan></text>
    <text
       xml:space="preserve"
       transform="matrix(3.073668,0,0,3.073668,-770.82244,-1024.7595)"
       id="LetterA"
       style="font-size:74.6667px;line-height:0.65;font-family:'The Wild Breath of Zelda';-inkscape-font-specification:'The Wild Breath of Zelda';white-space:pre;shape-inside:url(#rect5);fill:#85ffe1;fill-opacity:1;stroke-width:7.55906"
       inkscape:label="LetterA"><tspan
         x="342.24609"
         y="454.9203"
         id="tspan7">A</tspan></text>
  </g>
</svg>
